<svg xmlns="http://www.w3.org/2000/svg" width="22.737" height="20.517" viewBox="0 0 22.737 20.517">
  <g id="business-bag-svgrepo-com_1_" data-name="business-bag-svgrepo-com (1)" transform="translate(0 -29.884)">
    <g id="Group_13253" data-name="Group 13253" transform="translate(0 29.884)">
      <path id="Path_11921" data-name="Path 11921" d="M13.177,325.343a.517.517,0,0,1-.517.517H10.077a.517.517,0,0,1-.517-.517v-1.815L0,321.356v8.654a1.034,1.034,0,0,0,1.034,1.034H21.7a1.034,1.034,0,0,0,1.034-1.034v-8.646l-9.56,2.164Z" transform="translate(0 -310.527)" fill="#3d76ff"/>
      <path id="Path_11922" data-name="Path 11922" d="M21.7,164.844H1.034A1.034,1.034,0,0,0,0,165.878v3.457l9.56,2.172v-.994a.517.517,0,0,1,.517-.517h2.584a.517.517,0,0,1,.517.517v1l9.56-2.164v-3.465A1.034,1.034,0,0,0,21.7,164.844Z" transform="translate(0 -159.83)" fill="#3d76ff"/>
      <path id="Path_11923" data-name="Path 11923" d="M167.164,32.5a1.4,1.4,0,0,1,1.4-1.4h5.176a1.4,1.4,0,0,1,1.4,1.4v1.365h1.215V32.5a2.618,2.618,0,0,0-2.615-2.615h-5.176a2.618,2.618,0,0,0-2.615,2.615v1.365h1.215V32.5Z" transform="translate(-159.784 -29.884)" fill="#3d76ff"/>
    </g>
  </g>
</svg>
