<svg xmlns="http://www.w3.org/2000/svg" width="17.941" height="19.222" viewBox="0 0 17.941 19.222">
  <g id="record-update-svgrepo-com" transform="translate(-3.6 -2)">
    <path id="Path_11926" data-name="Path 11926" d="M40.8,7.7h0" transform="translate(-22.303 -3.417)" fill="#3d76ff"/>
    <g id="Group_13254" data-name="Group 13254" transform="translate(3.6 2)">
      <path id="Path_11927" data-name="Path 11927" d="M16.241,5.844h7.048A.633.633,0,0,0,23.93,5.2V3.922A1.949,1.949,0,0,0,22.007,2H17.522A1.949,1.949,0,0,0,15.6,3.922V5.2A.633.633,0,0,0,16.241,5.844Z" transform="translate(-10.794 -2)" fill="#3d76ff"/>
      <path id="Path_11928" data-name="Path 11928" d="M19.619,6h-.641a.3.3,0,0,0-.32.32V7.6a2.581,2.581,0,0,1-2.563,2.563H9.046A2.581,2.581,0,0,1,6.483,7.6V6.32A.3.3,0,0,0,6.163,6H5.522A1.949,1.949,0,0,0,3.6,7.922V21.7a1.949,1.949,0,0,0,1.922,1.922h14.1A1.949,1.949,0,0,0,21.541,21.7V7.922A1.949,1.949,0,0,0,19.619,6Zm-3.844,9.771L10.648,20.9h0l-2.243.641a.319.319,0,0,1-.36-.36l.641-2.2,5.126-5.126a.194.194,0,0,1,.28,0l1.642,1.682C15.854,15.571,15.854,15.691,15.774,15.771Zm1.482-1.482-.641.641a.194.194,0,0,1-.28,0l-1.682-1.682a.194.194,0,0,1,0-.28l.641-.641a.728.728,0,0,1,1.081,0l.841.841A.744.744,0,0,1,17.256,14.29Z" transform="translate(-3.6 -4.398)" fill="#3d76ff"/>
    </g>
  </g>
</svg>
